<?xml version="1.0" encoding="UTF-8" standalone="no"?>
<!-- Created with Inkscape (http://www.inkscape.org/) -->

<svg
   xmlns:dc="http://purl.org/dc/elements/1.1/"
   xmlns:cc="http://creativecommons.org/ns#"
   xmlns:rdf="http://www.w3.org/1999/02/22-rdf-syntax-ns#"
   xmlns:svg="http://www.w3.org/2000/svg"
   xmlns="http://www.w3.org/2000/svg"
   xmlns:xlink="http://www.w3.org/1999/xlink"
   xmlns:sodipodi="http://sodipodi.sourceforge.net/DTD/sodipodi-0.dtd"
   xmlns:inkscape="http://www.inkscape.org/namespaces/inkscape"
   width="744.09448819"
   height="1052.3622047"
   id="svg3076"
   version="1.1"
   inkscape:version="0.47 r22583"
   inkscape:export-filename="/home/norby/wifi.png"
   inkscape:export-xdpi="90"
   inkscape:export-ydpi="90"
   sodipodi:docname="Nuovo documento 2">
  <defs
     id="defs3078">
    <inkscape:perspective
       sodipodi:type="inkscape:persp3d"
       inkscape:vp_x="0 : 526.18109 : 1"
       inkscape:vp_y="0 : 1000 : 0"
       inkscape:vp_z="744.09448 : 526.18109 : 1"
       inkscape:persp3d-origin="372.04724 : 350.78739 : 1"
       id="perspective3084" />
    <inkscape:perspective
       id="perspective3021"
       inkscape:persp3d-origin="0.5 : 0.33333333 : 1"
       inkscape:vp_z="1 : 0.5 : 1"
       inkscape:vp_y="0 : 1000 : 0"
       inkscape:vp_x="0 : 0.5 : 1"
       sodipodi:type="inkscape:persp3d" />
    <linearGradient
       inkscape:collect="always"
       xlink:href="#linearGradient4249"
       id="linearGradient3365"
       gradientUnits="userSpaceOnUse"
       x1="-208.5"
       y1="221.36218"
       x2="-208.5"
       y2="224.36218" />
    <linearGradient
       id="linearGradient4249">
      <stop
         id="stop4251"
         offset="0"
         style="stop-color:#ffffff;stop-opacity:1;" />
      <stop
         style="stop-color:#ffffff;stop-opacity:0.78431374;"
         offset="0.47000003"
         id="stop4253" />
      <stop
         id="stop4255"
         offset="0.75125003"
         style="stop-color:#ffffff;stop-opacity:0.39215687;" />
      <stop
         id="stop4257"
         offset="1"
         style="stop-color:#ffffff;stop-opacity:1;" />
    </linearGradient>
    <linearGradient
       inkscape:collect="always"
       xlink:href="#linearGradient4249"
       id="linearGradient3367"
       gradientUnits="userSpaceOnUse"
       gradientTransform="translate(34.407957,123.45079)"
       x1="-216.5625"
       y1="210.625"
       x2="-199.4375"
       y2="210.625" />
    <linearGradient
       id="linearGradient3032">
      <stop
         id="stop3034"
         offset="0"
         style="stop-color:#ffffff;stop-opacity:1;" />
      <stop
         style="stop-color:#ffffff;stop-opacity:0.78431374;"
         offset="0.47000003"
         id="stop3036" />
      <stop
         id="stop3038"
         offset="0.75125003"
         style="stop-color:#ffffff;stop-opacity:0.39215687;" />
      <stop
         id="stop3040"
         offset="1"
         style="stop-color:#ffffff;stop-opacity:1;" />
    </linearGradient>
    <linearGradient
       inkscape:collect="always"
       xlink:href="#linearGradient4249"
       id="linearGradient3369"
       gradientUnits="userSpaceOnUse"
       gradientTransform="translate(34.407957,123.45079)"
       x1="-214.125"
       y1="214.20312"
       x2="-201.90625"
       y2="214.20312" />
    <linearGradient
       id="linearGradient3043">
      <stop
         id="stop3045"
         offset="0"
         style="stop-color:#ffffff;stop-opacity:1;" />
      <stop
         style="stop-color:#ffffff;stop-opacity:0.78431374;"
         offset="0.47000003"
         id="stop3047" />
      <stop
         id="stop3049"
         offset="0.75125003"
         style="stop-color:#ffffff;stop-opacity:0.39215687;" />
      <stop
         id="stop3051"
         offset="1"
         style="stop-color:#ffffff;stop-opacity:1;" />
    </linearGradient>
    <linearGradient
       inkscape:collect="always"
       xlink:href="#linearGradient4249"
       id="linearGradient3371"
       gradientUnits="userSpaceOnUse"
       gradientTransform="translate(1.4142136,124.45079)"
       x1="-178.625"
       y1="216.81241"
       x2="-171.3125"
       y2="216.81241" />
    <linearGradient
       id="linearGradient3054">
      <stop
         id="stop3056"
         offset="0"
         style="stop-color:#ffffff;stop-opacity:1;" />
      <stop
         style="stop-color:#ffffff;stop-opacity:0.78431374;"
         offset="0.47000003"
         id="stop3058" />
      <stop
         id="stop3060"
         offset="0.75125003"
         style="stop-color:#ffffff;stop-opacity:0.39215687;" />
      <stop
         id="stop3062"
         offset="1"
         style="stop-color:#ffffff;stop-opacity:1;" />
    </linearGradient>
    <linearGradient
       y2="216.81241"
       x2="-171.3125"
       y1="216.81241"
       x1="-178.625"
       gradientTransform="translate(1.4142136,124.45079)"
       gradientUnits="userSpaceOnUse"
       id="linearGradient3074"
       xlink:href="#linearGradient4249"
       inkscape:collect="always" />
    <inkscape:perspective
       id="perspective3255"
       inkscape:persp3d-origin="0.5 : 0.33333333 : 1"
       inkscape:vp_z="1 : 0.5 : 1"
       inkscape:vp_y="0 : 1000 : 0"
       inkscape:vp_x="0 : 0.5 : 1"
       sodipodi:type="inkscape:persp3d" />
    <linearGradient
       inkscape:collect="always"
       xlink:href="#linearGradient4249-5"
       id="linearGradient3365-6"
       gradientUnits="userSpaceOnUse"
       x1="-208.5"
       y1="221.36218"
       x2="-208.5"
       y2="224.36218" />
    <linearGradient
       id="linearGradient4249-5">
      <stop
         id="stop4251-6"
         offset="0"
         style="stop-color:#ffffff;stop-opacity:1;" />
      <stop
         style="stop-color:#ffffff;stop-opacity:0.78431374;"
         offset="0.47000003"
         id="stop4253-9" />
      <stop
         id="stop4255-3"
         offset="0.75125003"
         style="stop-color:#ffffff;stop-opacity:0.39215687;" />
      <stop
         id="stop4257-7"
         offset="1"
         style="stop-color:#ffffff;stop-opacity:1;" />
    </linearGradient>
    <linearGradient
       inkscape:collect="always"
       xlink:href="#linearGradient4249-5"
       id="linearGradient3367-4"
       gradientUnits="userSpaceOnUse"
       gradientTransform="translate(34.407957,123.45079)"
       x1="-216.5625"
       y1="210.625"
       x2="-199.4375"
       y2="210.625" />
    <linearGradient
       id="linearGradient3266">
      <stop
         id="stop3268"
         offset="0"
         style="stop-color:#ffffff;stop-opacity:1;" />
      <stop
         style="stop-color:#ffffff;stop-opacity:0.78431374;"
         offset="0.47000003"
         id="stop3270" />
      <stop
         id="stop3272"
         offset="0.75125003"
         style="stop-color:#ffffff;stop-opacity:0.39215687;" />
      <stop
         id="stop3274"
         offset="1"
         style="stop-color:#ffffff;stop-opacity:1;" />
    </linearGradient>
    <linearGradient
       inkscape:collect="always"
       xlink:href="#linearGradient4249-5"
       id="linearGradient3369-5"
       gradientUnits="userSpaceOnUse"
       gradientTransform="translate(34.407957,123.45079)"
       x1="-214.125"
       y1="214.20312"
       x2="-201.90625"
       y2="214.20312" />
    <linearGradient
       id="linearGradient3277">
      <stop
         id="stop3279"
         offset="0"
         style="stop-color:#ffffff;stop-opacity:1;" />
      <stop
         style="stop-color:#ffffff;stop-opacity:0.78431374;"
         offset="0.47000003"
         id="stop3281" />
      <stop
         id="stop3283"
         offset="0.75125003"
         style="stop-color:#ffffff;stop-opacity:0.39215687;" />
      <stop
         id="stop3285"
         offset="1"
         style="stop-color:#ffffff;stop-opacity:1;" />
    </linearGradient>
    <linearGradient
       inkscape:collect="always"
       xlink:href="#linearGradient4249-5"
       id="linearGradient3371-2"
       gradientUnits="userSpaceOnUse"
       gradientTransform="translate(1.4142136,124.45079)"
       x1="-178.625"
       y1="216.81241"
       x2="-171.3125"
       y2="216.81241" />
    <linearGradient
       id="linearGradient3288">
      <stop
         id="stop3290"
         offset="0"
         style="stop-color:#ffffff;stop-opacity:1;" />
      <stop
         style="stop-color:#ffffff;stop-opacity:0.78431374;"
         offset="0.47000003"
         id="stop3292" />
      <stop
         id="stop3294"
         offset="0.75125003"
         style="stop-color:#ffffff;stop-opacity:0.39215687;" />
      <stop
         id="stop3296"
         offset="1"
         style="stop-color:#ffffff;stop-opacity:1;" />
    </linearGradient>
    <linearGradient
       y2="216.81241"
       x2="-171.3125"
       y1="216.81241"
       x1="-178.625"
       gradientTransform="translate(1.4142136,124.45079)"
       gradientUnits="userSpaceOnUse"
       id="linearGradient3308"
       xlink:href="#linearGradient4249-5"
       inkscape:collect="always" />
  </defs>
  <sodipodi:namedview
     id="base"
     pagecolor="#ffffff"
     bordercolor="#666666"
     borderopacity="1.0"
     inkscape:pageopacity="0.0"
     inkscape:pageshadow="2"
     inkscape:zoom="0.35"
     inkscape:cx="375"
     inkscape:cy="520"
     inkscape:document-units="px"
     inkscape:current-layer="layer1"
     showgrid="false"
     inkscape:window-width="588"
     inkscape:window-height="483"
     inkscape:window-x="0"
     inkscape:window-y="0"
     inkscape:window-maximized="0" />
  <metadata
     id="metadata3081">
    <rdf:RDF>
      <cc:Work
         rdf:about="">
        <dc:format>image/svg+xml</dc:format>
        <dc:type
           rdf:resource="http://purl.org/dc/dcmitype/StillImage" />
        <dc:title></dc:title>
      </cc:Work>
    </rdf:RDF>
  </metadata>
  <g
     inkscape:label="Livello 1"
     inkscape:groupmode="layer"
     id="layer1">
    <g
       id="network-wireless-80"
       transform="matrix(1.7018944,0,0,1.7018944,938.12227,-139.70271)"
       inkscape:export-xdpi="90"
       inkscape:export-ydpi="90"
       inkscape:export-filename="/home/norby/wifi1.png">
      <rect
         ry="0"
         rx="0"
         y="325.81299"
         x="-185.49203"
         height="24"
         width="24"
         id="rect3456"
         style="opacity:0;fill:#b7b7b7;fill-opacity:1;stroke:none" />
      <path
         id="path4232"
         d="m -173.59205,342.82579 c -1.65685,0 -3,1.34315 -3,3 0,1.65685 1.34315,3 3,3 1.65685,0 3,-1.34315 3,-3 0,-1.65685 -1.34315,-3 -3,-3 z m 0,1 c 1.10457,0 2,0.89543 2,2 0,1.10457 -0.89543,2 -2,2 -1.10457,0 -2,-0.89543 -2,-2 0,-1.10457 0.89543,-2 2,-2 z"
         style="fill:#000000;fill-opacity:0.39215686;stroke:none" />
      <path
         transform="matrix(1.3333333,0,0,1.3333333,104.40795,48.663399)"
         d="m -207,222.86218 c 0,0.82843 -0.67157,1.5 -1.5,1.5 -0.82843,0 -1.5,-0.67157 -1.5,-1.5 0,-0.82842 0.67157,-1.5 1.5,-1.5 0.82843,0 1.5,0.67158 1.5,1.5 z"
         sodipodi:ry="1.5"
         sodipodi:rx="1.5"
         sodipodi:cy="222.86218"
         sodipodi:cx="-208.5"
         id="path4230"
         style="fill:url(#linearGradient3365-6);fill-opacity:1;stroke:none"
         sodipodi:type="arc" />
      <path
         id="path4398"
         d="m -173.58579,330.79454 c -3.23829,0.003 -6.47901,1.02734 -9.1875,3.125 a 1.038667,1.038667 0 0 0 -0.1875,1.4375 l 1.21875,1.59375 a 1.038667,1.038667 0 0 0 1.21875,0.3125 1.0168078,1.0168078 0 0 1 0.0313,-0.0313 1.0168078,1.0168078 0 0 1 0.15625,-0.125 c 1.98248,-1.53539 4.37368,-2.3105 6.75,-2.3125 2.36983,-0.002 4.73482,0.75003 6.71875,2.28125 a 1.0168078,1.0168078 0 0 1 0.0937,0.125 1.0168078,1.0168078 0 0 1 0.0313,0 1.038667,1.038667 0 0 0 0.0313,0.0313 1.038667,1.038667 0 0 0 1.28125,-0.28125 l 1.21875,-1.59375 a 1.038667,1.038667 0 0 0 -0.1875,-1.4375 c -2.70947,-2.0912 -5.94572,-3.1277 -9.1875,-3.125 z m 0,1.03125 c 3.02087,-0.003 6.03931,0.95882 8.5625,2.90625 l -1.21875,1.59375 c -4.32548,-3.33846 -10.36759,-3.34567 -14.6875,0 l -1.21875,-1.59375 c 2.51994,-1.95163 5.54163,-2.90373 8.5625,-2.90625 z"
         style="fill:#000000;fill-opacity:0.39215686;stroke:none" />
      <path
         id="path4409"
         d="m -173.59205,334.79454 c -2.37632,0.002 -4.76752,0.77711 -6.75,2.3125 a 1.0168078,1.0168078 0 0 0 -0.1875,1.4375 l 1.21875,1.5625 a 1.0168078,1.0168078 0 0 0 1.4375,0.1875 c 2.51747,-1.94973 6.00862,-1.94699 8.53125,0 a 1.0168078,1.0168078 0 0 0 1.4375,-0.1875 l 1.21875,-1.59375 a 1.0168078,1.0168078 0 0 0 -0.1875,-1.4375 c -1.98393,-1.53122 -4.34892,-2.28323 -6.71875,-2.28125 z m 0,1.03125 c 2.15778,-0.002 4.29146,0.67147 6.09375,2.0625 l -1.21875,1.59375 c -2.88366,-2.22564 -6.90131,-2.23045 -9.78125,0 l -1.21875,-1.5625 c 1.79996,-1.39403 3.96722,-2.09195 6.125,-2.09375 z"
         style="fill:#000000;fill-opacity:0.39215686;stroke:none" />
      <path
         id="path4284"
         d="m -173.59205,331.82579 c -3.02087,0.003 -6.04256,0.95462 -8.5625,2.90625 l 1.21875,1.59375 c 4.31991,-3.34567 10.36202,-3.33846 14.6875,0 l 1.21875,-1.59375 c -2.52319,-1.94743 -5.54163,-2.90877 -8.5625,-2.90625 z"
         style="fill:url(#linearGradient3367-4);fill-opacity:1;stroke:none" />
      <path
         id="path4602"
         d="m -173.55454,338.85704 c -1.50018,-0.0118 -2.993,0.45045 -4.25,1.40625 a 0.9725103,0.9725103 0 0 0 -0.1875,1.375 l 1.21875,1.59375 a 0.9725103,0.9725103 0 0 0 1.375,0.1875 c 0.50911,-0.38295 1.13582,-0.625 1.8125,-0.625 0.69568,0 1.30795,0.23427 1.84375,0.65625 a 0.9725103,0.9725103 0 0 0 1.34375,-0.15625 l 1.25,-1.59375 a 0.9725103,0.9725103 0 0 0 -0.15625,-1.34375 c -1.24485,-0.978 -2.74744,-1.48812 -4.25,-1.5 z m 0,0.96875 c 1.29299,0.0102 2.58348,0.43844 3.65625,1.28125 l -1.25,1.59375 c -0.6795,-0.53516 -1.50545,-0.875 -2.4375,-0.875 -0.90006,0 -1.73839,0.31014 -2.40625,0.8125 l -1.21875,-1.59375 c 1.08596,-0.82575 2.36326,-1.22897 3.65625,-1.21875 z"
         style="fill:#000000;fill-opacity:0.39215686;stroke:none" />
      <path
         id="path4292"
         d="m -173.59205,335.82579 c -2.15778,0.002 -4.32504,0.69972 -6.125,2.09375 l 1.21875,1.5625 c 2.87994,-2.23045 6.89759,-2.22564 9.78125,0 l 1.21875,-1.59375 c -1.80229,-1.39103 -3.93597,-2.0643 -6.09375,-2.0625 z"
         style="fill:url(#linearGradient3369-5);fill-opacity:1;stroke:none" />
      <path
         id="path4585"
         d="m -173.55454,339.82579 c -1.29299,-0.0102 -2.57029,0.393 -3.65625,1.21875 l 1.21875,1.59375 c 0.66786,-0.50236 1.50619,-0.8125 2.40625,-0.8125 0.93205,0 1.758,0.33984 2.4375,0.875 l 1.25,-1.59375 c -1.07277,-0.84281 -2.36326,-1.27103 -3.65625,-1.28125 z"
         style="fill:url(#linearGradient3308);fill-opacity:1;stroke:none" />
    </g>
  </g>
</svg>
