<?xml version="1.0" encoding="UTF-8" standalone="no"?>
<!-- Created with Inkscape (http://www.inkscape.org/) -->

<svg
   xmlns:osb="http://www.openswatchbook.org/uri/2009/osb"
   xmlns:dc="http://purl.org/dc/elements/1.1/"
   xmlns:cc="http://creativecommons.org/ns#"
   xmlns:rdf="http://www.w3.org/1999/02/22-rdf-syntax-ns#"
   xmlns:svg="http://www.w3.org/2000/svg"
   xmlns="http://www.w3.org/2000/svg"
   xmlns:xlink="http://www.w3.org/1999/xlink"
   xmlns:sodipodi="http://sodipodi.sourceforge.net/DTD/sodipodi-0.dtd"
   xmlns:inkscape="http://www.inkscape.org/namespaces/inkscape"
   width="744.09448819"
   height="1052.3622047"
   id="svg3076"
   version="1.1"
   inkscape:version="0.48.0 r9654"
   inkscape:export-filename="/home/norby/wifi.png"
   inkscape:export-xdpi="90"
   inkscape:export-ydpi="90"
   sodipodi:docname="wifi.svg">
  <defs
     id="defs3078">
    <linearGradient
       id="linearGradient5420"
       osb:paint="solid">
      <stop
         style="stop-color:#000000;stop-opacity:1;"
         offset="0"
         id="stop5422" />
    </linearGradient>
    <linearGradient
       id="linearGradient5394"
       osb:paint="solid">
      <stop
         style="stop-color:#000000;stop-opacity:1;"
         offset="0"
         id="stop5396" />
    </linearGradient>
    <inkscape:perspective
       sodipodi:type="inkscape:persp3d"
       inkscape:vp_x="0 : 526.18109 : 1"
       inkscape:vp_y="0 : 1000 : 0"
       inkscape:vp_z="744.09448 : 526.18109 : 1"
       inkscape:persp3d-origin="372.04724 : 350.78739 : 1"
       id="perspective3084" />
    <inkscape:perspective
       id="perspective3021"
       inkscape:persp3d-origin="0.5 : 0.33333333 : 1"
       inkscape:vp_z="1 : 0.5 : 1"
       inkscape:vp_y="0 : 1000 : 0"
       inkscape:vp_x="0 : 0.5 : 1"
       sodipodi:type="inkscape:persp3d" />
    <linearGradient
       inkscape:collect="always"
       xlink:href="#linearGradient4249"
       id="linearGradient3365"
       gradientUnits="userSpaceOnUse"
       x1="-208.5"
       y1="221.36218"
       x2="-208.5"
       y2="224.36218" />
    <linearGradient
       id="linearGradient4249">
      <stop
         id="stop4251"
         offset="0"
         style="stop-color:#ffffff;stop-opacity:1;" />
      <stop
         style="stop-color:#ffffff;stop-opacity:0.78431374;"
         offset="0.47000003"
         id="stop4253" />
      <stop
         id="stop4255"
         offset="0.75125003"
         style="stop-color:#ffffff;stop-opacity:0.39215687;" />
      <stop
         id="stop4257"
         offset="1"
         style="stop-color:#ffffff;stop-opacity:1;" />
    </linearGradient>
    <linearGradient
       inkscape:collect="always"
       xlink:href="#linearGradient4249"
       id="linearGradient3367"
       gradientUnits="userSpaceOnUse"
       gradientTransform="translate(34.407957,123.45079)"
       x1="-216.5625"
       y1="210.625"
       x2="-199.4375"
       y2="210.625" />
    <linearGradient
       id="linearGradient3032">
      <stop
         id="stop3034"
         offset="0"
         style="stop-color:#ffffff;stop-opacity:1;" />
      <stop
         style="stop-color:#ffffff;stop-opacity:0.78431374;"
         offset="0.47000003"
         id="stop3036" />
      <stop
         id="stop3038"
         offset="0.75125003"
         style="stop-color:#ffffff;stop-opacity:0.39215687;" />
      <stop
         id="stop3040"
         offset="1"
         style="stop-color:#ffffff;stop-opacity:1;" />
    </linearGradient>
    <linearGradient
       inkscape:collect="always"
       xlink:href="#linearGradient4249"
       id="linearGradient3369"
       gradientUnits="userSpaceOnUse"
       gradientTransform="translate(34.407957,123.45079)"
       x1="-214.125"
       y1="214.20312"
       x2="-201.90625"
       y2="214.20312" />
    <linearGradient
       id="linearGradient3043">
      <stop
         id="stop3045"
         offset="0"
         style="stop-color:#ffffff;stop-opacity:1;" />
      <stop
         style="stop-color:#ffffff;stop-opacity:0.78431374;"
         offset="0.47000003"
         id="stop3047" />
      <stop
         id="stop3049"
         offset="0.75125003"
         style="stop-color:#ffffff;stop-opacity:0.39215687;" />
      <stop
         id="stop3051"
         offset="1"
         style="stop-color:#ffffff;stop-opacity:1;" />
    </linearGradient>
    <linearGradient
       inkscape:collect="always"
       xlink:href="#linearGradient4249"
       id="linearGradient3371"
       gradientUnits="userSpaceOnUse"
       gradientTransform="translate(1.4142136,124.45079)"
       x1="-178.625"
       y1="216.81241"
       x2="-171.3125"
       y2="216.81241" />
    <linearGradient
       id="linearGradient3054">
      <stop
         id="stop3056"
         offset="0"
         style="stop-color:#ffffff;stop-opacity:1;" />
      <stop
         style="stop-color:#ffffff;stop-opacity:0.78431374;"
         offset="0.47000003"
         id="stop3058" />
      <stop
         id="stop3060"
         offset="0.75125003"
         style="stop-color:#ffffff;stop-opacity:0.39215687;" />
      <stop
         id="stop3062"
         offset="1"
         style="stop-color:#ffffff;stop-opacity:1;" />
    </linearGradient>
    <linearGradient
       y2="216.81241"
       x2="-171.3125"
       y1="216.81241"
       x1="-178.625"
       gradientTransform="translate(1.4142136,124.45079)"
       gradientUnits="userSpaceOnUse"
       id="linearGradient3074"
       xlink:href="#linearGradient4249"
       inkscape:collect="always" />
    <inkscape:perspective
       id="perspective3255"
       inkscape:persp3d-origin="0.5 : 0.33333333 : 1"
       inkscape:vp_z="1 : 0.5 : 1"
       inkscape:vp_y="0 : 1000 : 0"
       inkscape:vp_x="0 : 0.5 : 1"
       sodipodi:type="inkscape:persp3d" />
    <linearGradient
       inkscape:collect="always"
       xlink:href="#linearGradient4249-5"
       id="linearGradient3365-6"
       gradientUnits="userSpaceOnUse"
       x1="-208.5"
       y1="221.36218"
       x2="-208.5"
       y2="224.36218" />
    <linearGradient
       id="linearGradient4249-5">
      <stop
         id="stop4251-6"
         offset="0"
         style="stop-color:#ffffff;stop-opacity:1;" />
      <stop
         style="stop-color:#ffffff;stop-opacity:0.78431374;"
         offset="0.47000003"
         id="stop4253-9" />
      <stop
         id="stop4255-3"
         offset="0.75125003"
         style="stop-color:#ffffff;stop-opacity:0.39215687;" />
      <stop
         id="stop4257-7"
         offset="1"
         style="stop-color:#ffffff;stop-opacity:1;" />
    </linearGradient>
    <linearGradient
       inkscape:collect="always"
       xlink:href="#linearGradient4249-5"
       id="linearGradient3367-4"
       gradientUnits="userSpaceOnUse"
       gradientTransform="translate(34.407957,123.45079)"
       x1="-216.5625"
       y1="210.625"
       x2="-199.4375"
       y2="210.625" />
    <linearGradient
       id="linearGradient3266">
      <stop
         id="stop3268"
         offset="0"
         style="stop-color:#ffffff;stop-opacity:1;" />
      <stop
         style="stop-color:#ffffff;stop-opacity:0.78431374;"
         offset="0.47000003"
         id="stop3270" />
      <stop
         id="stop3272"
         offset="0.75125003"
         style="stop-color:#ffffff;stop-opacity:0.39215687;" />
      <stop
         id="stop3274"
         offset="1"
         style="stop-color:#ffffff;stop-opacity:1;" />
    </linearGradient>
    <linearGradient
       inkscape:collect="always"
       xlink:href="#linearGradient4249-5"
       id="linearGradient3369-5"
       gradientUnits="userSpaceOnUse"
       gradientTransform="translate(34.407957,123.45079)"
       x1="-214.125"
       y1="214.20312"
       x2="-201.90625"
       y2="214.20312" />
    <linearGradient
       id="linearGradient3277">
      <stop
         id="stop3279"
         offset="0"
         style="stop-color:#ffffff;stop-opacity:1;" />
      <stop
         style="stop-color:#ffffff;stop-opacity:0.78431374;"
         offset="0.47000003"
         id="stop3281" />
      <stop
         id="stop3283"
         offset="0.75125003"
         style="stop-color:#ffffff;stop-opacity:0.39215687;" />
      <stop
         id="stop3285"
         offset="1"
         style="stop-color:#ffffff;stop-opacity:1;" />
    </linearGradient>
    <linearGradient
       inkscape:collect="always"
       xlink:href="#linearGradient4249-5"
       id="linearGradient3371-2"
       gradientUnits="userSpaceOnUse"
       gradientTransform="translate(1.4142136,124.45079)"
       x1="-178.625"
       y1="216.81241"
       x2="-171.3125"
       y2="216.81241" />
    <linearGradient
       id="linearGradient3288">
      <stop
         id="stop3290"
         offset="0"
         style="stop-color:#ffffff;stop-opacity:1;" />
      <stop
         style="stop-color:#ffffff;stop-opacity:0.78431374;"
         offset="0.47000003"
         id="stop3292" />
      <stop
         id="stop3294"
         offset="0.75125003"
         style="stop-color:#ffffff;stop-opacity:0.39215687;" />
      <stop
         id="stop3296"
         offset="1"
         style="stop-color:#ffffff;stop-opacity:1;" />
    </linearGradient>
    <linearGradient
       y2="216.81241"
       x2="-171.3125"
       y1="216.81241"
       x1="-178.625"
       gradientTransform="translate(1.4142136,124.45079)"
       gradientUnits="userSpaceOnUse"
       id="linearGradient3308"
       xlink:href="#linearGradient4249-5"
       inkscape:collect="always" />
    <linearGradient
       id="linearGradient4249-5-5">
      <stop
         id="stop4251-6-4"
         offset="0"
         style="stop-color:#ffffff;stop-opacity:1;" />
      <stop
         style="stop-color:#ffffff;stop-opacity:0.78431374;"
         offset="0.47000003"
         id="stop4253-9-7" />
      <stop
         id="stop4255-3-6"
         offset="0.75125003"
         style="stop-color:#ffffff;stop-opacity:0.39215687;" />
      <stop
         id="stop4257-7-5"
         offset="1"
         style="stop-color:#ffffff;stop-opacity:1;" />
    </linearGradient>
    <linearGradient
       id="linearGradient3062">
      <stop
         id="stop3064"
         offset="0"
         style="stop-color:#ffffff;stop-opacity:1;" />
      <stop
         style="stop-color:#ffffff;stop-opacity:0.78431374;"
         offset="0.47000003"
         id="stop3066" />
      <stop
         id="stop3068"
         offset="0.75125003"
         style="stop-color:#ffffff;stop-opacity:0.39215687;" />
      <stop
         id="stop3070"
         offset="1"
         style="stop-color:#ffffff;stop-opacity:1;" />
    </linearGradient>
    <linearGradient
       id="linearGradient3073">
      <stop
         id="stop3075"
         offset="0"
         style="stop-color:#ffffff;stop-opacity:1;" />
      <stop
         style="stop-color:#ffffff;stop-opacity:0.78431374;"
         offset="0.47000003"
         id="stop3077" />
      <stop
         id="stop3079"
         offset="0.75125003"
         style="stop-color:#ffffff;stop-opacity:0.39215687;" />
      <stop
         id="stop3081"
         offset="1"
         style="stop-color:#ffffff;stop-opacity:1;" />
    </linearGradient>
    <linearGradient
       y2="216.81241"
       x2="-171.3125"
       y1="216.81241"
       x1="-178.625"
       gradientTransform="translate(1.4142136,124.45079)"
       gradientUnits="userSpaceOnUse"
       id="linearGradient3308-3"
       xlink:href="#linearGradient4249-5-5"
       inkscape:collect="always" />
    <linearGradient
       id="linearGradient3084">
      <stop
         id="stop3086"
         offset="0"
         style="stop-color:#ffffff;stop-opacity:1;" />
      <stop
         style="stop-color:#ffffff;stop-opacity:0.78431374;"
         offset="0.47000003"
         id="stop3088" />
      <stop
         id="stop3090"
         offset="0.75125003"
         style="stop-color:#ffffff;stop-opacity:0.39215687;" />
      <stop
         id="stop3092"
         offset="1"
         style="stop-color:#ffffff;stop-opacity:1;" />
    </linearGradient>
    <linearGradient
       id="linearGradient4249-5-51">
      <stop
         id="stop4251-6-1"
         offset="0"
         style="stop-color:#ffffff;stop-opacity:1;" />
      <stop
         style="stop-color:#ffffff;stop-opacity:0.78431374;"
         offset="0.47000003"
         id="stop4253-9-0" />
      <stop
         id="stop4255-3-3"
         offset="0.75125003"
         style="stop-color:#ffffff;stop-opacity:0.39215687;" />
      <stop
         id="stop4257-7-0"
         offset="1"
         style="stop-color:#ffffff;stop-opacity:1;" />
    </linearGradient>
    <linearGradient
       id="linearGradient5452">
      <stop
         id="stop5454"
         offset="0"
         style="stop-color:#ffffff;stop-opacity:1;" />
      <stop
         style="stop-color:#ffffff;stop-opacity:0.78431374;"
         offset="0.47000003"
         id="stop5456" />
      <stop
         id="stop5458"
         offset="0.75125003"
         style="stop-color:#ffffff;stop-opacity:0.39215687;" />
      <stop
         id="stop5460"
         offset="1"
         style="stop-color:#ffffff;stop-opacity:1;" />
    </linearGradient>
    <linearGradient
       id="linearGradient5463">
      <stop
         id="stop5465"
         offset="0"
         style="stop-color:#ffffff;stop-opacity:1;" />
      <stop
         style="stop-color:#ffffff;stop-opacity:0.78431374;"
         offset="0.47000003"
         id="stop5467" />
      <stop
         id="stop5469"
         offset="0.75125003"
         style="stop-color:#ffffff;stop-opacity:0.39215687;" />
      <stop
         id="stop5471"
         offset="1"
         style="stop-color:#ffffff;stop-opacity:1;" />
    </linearGradient>
    <linearGradient
       y2="216.81241"
       x2="-171.3125"
       y1="216.81241"
       x1="-178.625"
       gradientTransform="translate(1.4142136,124.45079)"
       gradientUnits="userSpaceOnUse"
       id="linearGradient3308-5"
       xlink:href="#linearGradient4249-5-51"
       inkscape:collect="always" />
    <linearGradient
       id="linearGradient5474">
      <stop
         id="stop5476"
         offset="0"
         style="stop-color:#ffffff;stop-opacity:1;" />
      <stop
         style="stop-color:#ffffff;stop-opacity:0.78431374;"
         offset="0.47000003"
         id="stop5478" />
      <stop
         id="stop5480"
         offset="0.75125003"
         style="stop-color:#ffffff;stop-opacity:0.39215687;" />
      <stop
         id="stop5482"
         offset="1"
         style="stop-color:#ffffff;stop-opacity:1;" />
    </linearGradient>
    <linearGradient
       id="linearGradient4249-5-3">
      <stop
         id="stop4251-6-9"
         offset="0"
         style="stop-color:#ffffff;stop-opacity:1;" />
      <stop
         style="stop-color:#ffffff;stop-opacity:0.78431374;"
         offset="0.47000003"
         id="stop4253-9-3" />
      <stop
         id="stop4255-3-34"
         offset="0.75125003"
         style="stop-color:#ffffff;stop-opacity:0.39215687;" />
      <stop
         id="stop4257-7-6"
         offset="1"
         style="stop-color:#ffffff;stop-opacity:1;" />
    </linearGradient>
    <linearGradient
       id="linearGradient5603">
      <stop
         id="stop5605"
         offset="0"
         style="stop-color:#ffffff;stop-opacity:1;" />
      <stop
         style="stop-color:#ffffff;stop-opacity:0.78431374;"
         offset="0.47000003"
         id="stop5607" />
      <stop
         id="stop5609"
         offset="0.75125003"
         style="stop-color:#ffffff;stop-opacity:0.39215687;" />
      <stop
         id="stop5611"
         offset="1"
         style="stop-color:#ffffff;stop-opacity:1;" />
    </linearGradient>
    <linearGradient
       id="linearGradient5614">
      <stop
         id="stop5616"
         offset="0"
         style="stop-color:#ffffff;stop-opacity:1;" />
      <stop
         style="stop-color:#ffffff;stop-opacity:0.78431374;"
         offset="0.47000003"
         id="stop5618" />
      <stop
         id="stop5620"
         offset="0.75125003"
         style="stop-color:#ffffff;stop-opacity:0.39215687;" />
      <stop
         id="stop5622"
         offset="1"
         style="stop-color:#ffffff;stop-opacity:1;" />
    </linearGradient>
    <linearGradient
       y2="216.81241"
       x2="-171.3125"
       y1="216.81241"
       x1="-178.625"
       gradientTransform="translate(1.4142136,124.45079)"
       gradientUnits="userSpaceOnUse"
       id="linearGradient3308-6"
       xlink:href="#linearGradient4249-5-3"
       inkscape:collect="always" />
    <linearGradient
       id="linearGradient5625">
      <stop
         id="stop5627"
         offset="0"
         style="stop-color:#ffffff;stop-opacity:1;" />
      <stop
         style="stop-color:#ffffff;stop-opacity:0.78431374;"
         offset="0.47000003"
         id="stop5629" />
      <stop
         id="stop5631"
         offset="0.75125003"
         style="stop-color:#ffffff;stop-opacity:0.39215687;" />
      <stop
         id="stop5633"
         offset="1"
         style="stop-color:#ffffff;stop-opacity:1;" />
    </linearGradient>
    <linearGradient
       inkscape:collect="always"
       xlink:href="#linearGradient4249-5-8"
       id="linearGradient3365-6-7"
       gradientUnits="userSpaceOnUse"
       x1="-208.5"
       y1="221.36218"
       x2="-208.5"
       y2="224.36218" />
    <linearGradient
       id="linearGradient4249-5-8">
      <stop
         id="stop4251-6-6"
         offset="0"
         style="stop-color:#ffffff;stop-opacity:1;" />
      <stop
         style="stop-color:#ffffff;stop-opacity:0.78431374;"
         offset="0.47000003"
         id="stop4253-9-37" />
      <stop
         id="stop4255-3-7"
         offset="0.75125003"
         style="stop-color:#ffffff;stop-opacity:0.39215687;" />
      <stop
         id="stop4257-7-2"
         offset="1"
         style="stop-color:#ffffff;stop-opacity:1;" />
    </linearGradient>
    <linearGradient
       id="linearGradient5765">
      <stop
         id="stop5767"
         offset="0"
         style="stop-color:#ffffff;stop-opacity:1;" />
      <stop
         style="stop-color:#ffffff;stop-opacity:0.78431374;"
         offset="0.47000003"
         id="stop5769" />
      <stop
         id="stop5771"
         offset="0.75125003"
         style="stop-color:#ffffff;stop-opacity:0.39215687;" />
      <stop
         id="stop5773"
         offset="1"
         style="stop-color:#ffffff;stop-opacity:1;" />
    </linearGradient>
    <linearGradient
       id="linearGradient5776">
      <stop
         id="stop5778"
         offset="0"
         style="stop-color:#ffffff;stop-opacity:1;" />
      <stop
         style="stop-color:#ffffff;stop-opacity:0.78431374;"
         offset="0.47000003"
         id="stop5780" />
      <stop
         id="stop5782"
         offset="0.75125003"
         style="stop-color:#ffffff;stop-opacity:0.39215687;" />
      <stop
         id="stop5784"
         offset="1"
         style="stop-color:#ffffff;stop-opacity:1;" />
    </linearGradient>
    <linearGradient
       y2="216.81241"
       x2="-171.3125"
       y1="216.81241"
       x1="-178.625"
       gradientTransform="translate(1.4142136,124.45079)"
       gradientUnits="userSpaceOnUse"
       id="linearGradient3308-2"
       xlink:href="#linearGradient4249-5-8"
       inkscape:collect="always" />
    <linearGradient
       id="linearGradient5787">
      <stop
         id="stop5789"
         offset="0"
         style="stop-color:#ffffff;stop-opacity:1;" />
      <stop
         style="stop-color:#ffffff;stop-opacity:0.78431374;"
         offset="0.47000003"
         id="stop5791" />
      <stop
         id="stop5793"
         offset="0.75125003"
         style="stop-color:#ffffff;stop-opacity:0.39215687;" />
      <stop
         id="stop5795"
         offset="1"
         style="stop-color:#ffffff;stop-opacity:1;" />
    </linearGradient>
    <linearGradient
       inkscape:collect="always"
       xlink:href="#linearGradient4249-5-3"
       id="linearGradient5884"
       gradientUnits="userSpaceOnUse"
       x1="-208.5"
       y1="221.36218"
       x2="-208.5"
       y2="224.36218" />
    <linearGradient
       inkscape:collect="always"
       xlink:href="#linearGradient4249-5-3"
       id="linearGradient5886"
       gradientUnits="userSpaceOnUse"
       gradientTransform="matrix(1.7018944,0,0,1.7018944,949.89526,69.683218)"
       x1="-216.5625"
       y1="210.625"
       x2="-199.4375"
       y2="210.625" />
    <linearGradient
       inkscape:collect="always"
       xlink:href="#linearGradient4249-5-3"
       id="linearGradient5888"
       gradientUnits="userSpaceOnUse"
       gradientTransform="matrix(1.7018944,0,0,1.7018944,949.89526,69.683218)"
       x1="-214.125"
       y1="214.20312"
       x2="-201.90625"
       y2="214.20312" />
    <linearGradient
       inkscape:collect="always"
       xlink:href="#linearGradient4249-5-3"
       id="linearGradient5890"
       gradientUnits="userSpaceOnUse"
       gradientTransform="matrix(1.7018944,0,0,1.7018944,893.74339,71.385113)"
       x1="-178.625"
       y1="216.81241"
       x2="-171.3125"
       y2="216.81241" />
    <linearGradient
       inkscape:collect="always"
       xlink:href="#linearGradient4249-5-8"
       id="linearGradient5893"
       gradientUnits="userSpaceOnUse"
       gradientTransform="matrix(1.7018944,0,0,1.7018944,875.85803,90.348053)"
       x1="-178.625"
       y1="216.81241"
       x2="-171.3125"
       y2="216.81241" />
    <linearGradient
       inkscape:collect="always"
       xlink:href="#linearGradient4249-5-8"
       id="linearGradient5896"
       gradientUnits="userSpaceOnUse"
       gradientTransform="matrix(1.7018944,0,0,1.7018944,932.0099,88.646158)"
       x1="-214.125"
       y1="214.20312"
       x2="-201.90625"
       y2="214.20312" />
    <linearGradient
       inkscape:collect="always"
       xlink:href="#linearGradient4249-5-8"
       id="linearGradient5900"
       gradientUnits="userSpaceOnUse"
       gradientTransform="matrix(1.7018944,0,0,1.7018944,932.0099,88.646158)"
       x1="-216.5625"
       y1="210.625"
       x2="-199.4375"
       y2="210.625" />
    <linearGradient
       inkscape:collect="always"
       xlink:href="#linearGradient4249-5-58"
       id="linearGradient3365-6-3"
       gradientUnits="userSpaceOnUse"
       x1="-208.5"
       y1="221.36218"
       x2="-208.5"
       y2="224.36218" />
    <linearGradient
       id="linearGradient4249-5-58">
      <stop
         id="stop4251-6-5"
         offset="0"
         style="stop-color:#ffffff;stop-opacity:1;" />
      <stop
         style="stop-color:#ffffff;stop-opacity:0.78431374;"
         offset="0.47000003"
         id="stop4253-9-09" />
      <stop
         id="stop4255-3-9"
         offset="0.75125003"
         style="stop-color:#ffffff;stop-opacity:0.39215687;" />
      <stop
         id="stop4257-7-8"
         offset="1"
         style="stop-color:#ffffff;stop-opacity:1;" />
    </linearGradient>
    <linearGradient
       id="linearGradient5934">
      <stop
         id="stop5936"
         offset="0"
         style="stop-color:#ffffff;stop-opacity:1;" />
      <stop
         style="stop-color:#ffffff;stop-opacity:0.78431374;"
         offset="0.47000003"
         id="stop5938" />
      <stop
         id="stop5940"
         offset="0.75125003"
         style="stop-color:#ffffff;stop-opacity:0.39215687;" />
      <stop
         id="stop5942"
         offset="1"
         style="stop-color:#ffffff;stop-opacity:1;" />
    </linearGradient>
    <linearGradient
       id="linearGradient5945">
      <stop
         id="stop5947"
         offset="0"
         style="stop-color:#ffffff;stop-opacity:1;" />
      <stop
         style="stop-color:#ffffff;stop-opacity:0.78431374;"
         offset="0.47000003"
         id="stop5949" />
      <stop
         id="stop5951"
         offset="0.75125003"
         style="stop-color:#ffffff;stop-opacity:0.39215687;" />
      <stop
         id="stop5953"
         offset="1"
         style="stop-color:#ffffff;stop-opacity:1;" />
    </linearGradient>
    <linearGradient
       y2="216.81241"
       x2="-171.3125"
       y1="216.81241"
       x1="-178.625"
       gradientTransform="translate(1.4142136,124.45079)"
       gradientUnits="userSpaceOnUse"
       id="linearGradient3308-4"
       xlink:href="#linearGradient4249-5-58"
       inkscape:collect="always" />
    <linearGradient
       id="linearGradient5956">
      <stop
         id="stop5958"
         offset="0"
         style="stop-color:#ffffff;stop-opacity:1;" />
      <stop
         style="stop-color:#ffffff;stop-opacity:0.78431374;"
         offset="0.47000003"
         id="stop5960" />
      <stop
         id="stop5962"
         offset="0.75125003"
         style="stop-color:#ffffff;stop-opacity:0.39215687;" />
      <stop
         id="stop5964"
         offset="1"
         style="stop-color:#ffffff;stop-opacity:1;" />
    </linearGradient>
    <linearGradient
       inkscape:collect="always"
       xlink:href="#linearGradient4249-5-58"
       id="linearGradient6255"
       gradientUnits="userSpaceOnUse"
       gradientTransform="matrix(1.7018944,0,0,1.7018944,843.91195,135.17358)"
       x1="-178.625"
       y1="216.81241"
       x2="-171.3125"
       y2="216.81241" />
    <linearGradient
       inkscape:collect="always"
       xlink:href="#linearGradient4249-5-58"
       id="linearGradient6258"
       gradientUnits="userSpaceOnUse"
       gradientTransform="matrix(1.7018944,0,0,1.7018944,900.06382,133.47169)"
       x1="-214.125"
       y1="214.20312"
       x2="-201.90625"
       y2="214.20312" />
    <linearGradient
       inkscape:collect="always"
       xlink:href="#linearGradient4249-5-58"
       id="linearGradient6262"
       gradientUnits="userSpaceOnUse"
       gradientTransform="matrix(1.7018944,0,0,1.7018944,900.06382,133.47169)"
       x1="-216.5625"
       y1="210.625"
       x2="-199.4375"
       y2="210.625" />
  </defs>
  <sodipodi:namedview
     id="base"
     pagecolor="#ffffff"
     bordercolor="#666666"
     borderopacity="1.0"
     inkscape:pageopacity="0.0"
     inkscape:pageshadow="2"
     inkscape:zoom="2.8"
     inkscape:cx="586.15823"
     inkscape:cy="613.25183"
     inkscape:document-units="px"
     inkscape:current-layer="layer1"
     showgrid="false"
     inkscape:window-width="1680"
     inkscape:window-height="929"
     inkscape:window-x="0"
     inkscape:window-y="24"
     inkscape:window-maximized="1" />
  <metadata
     id="metadata3081">
    <rdf:RDF>
      <cc:Work
         rdf:about="">
        <dc:format>image/svg+xml</dc:format>
        <dc:type
           rdf:resource="http://purl.org/dc/dcmitype/StillImage" />
        <dc:title></dc:title>
      </cc:Work>
    </rdf:RDF>
  </metadata>
  <g
     inkscape:label="Livello 1"
     inkscape:groupmode="layer"
     id="layer1">
    <g
       id="network-wireless-80"
       transform="matrix(1.7018944,0,0,1.7018944,841.40016,-120.76235)"
       inkscape:export-xdpi="90"
       inkscape:export-ydpi="90"
       inkscape:export-filename="/home/momphucker/Scrivania/default_select.png">
      <rect
         ry="0"
         rx="0"
         y="325.81299"
         x="-185.49203"
         height="24"
         width="24"
         id="rect3456"
         style="opacity:0;fill:#b7b7b7;fill-opacity:1;stroke:none" />
      <path
         id="path4232"
         d="m -173.59205,342.82579 c -1.65685,0 -3,1.34315 -3,3 0,1.65685 1.34315,3 3,3 1.65685,0 3,-1.34315 3,-3 0,-1.65685 -1.34315,-3 -3,-3 z m 0,1 c 1.10457,0 2,0.89543 2,2 0,1.10457 -0.89543,2 -2,2 -1.10457,0 -2,-0.89543 -2,-2 0,-1.10457 0.89543,-2 2,-2 z"
         style="fill:#000000;fill-opacity:0.39215686;stroke:none"
         inkscape:connector-curvature="0" />
      <path
         transform="matrix(1.3333333,0,0,1.3333333,104.40795,48.663399)"
         d="m -207,222.86218 c 0,0.82843 -0.67157,1.5 -1.5,1.5 -0.82843,0 -1.5,-0.67157 -1.5,-1.5 0,-0.82842 0.67157,-1.5 1.5,-1.5 0.82843,0 1.5,0.67158 1.5,1.5 z"
         sodipodi:ry="1.5"
         sodipodi:rx="1.5"
         sodipodi:cy="222.86218"
         sodipodi:cx="-208.5"
         id="path4230"
         style="fill:url(#linearGradient3365-6);fill-opacity:1;stroke:none"
         sodipodi:type="arc" />
      <path
         id="path4398"
         d="m -173.58579,330.79454 c -3.23829,0.003 -6.47901,1.02734 -9.1875,3.125 a 1.038667,1.038667 0 0 0 -0.1875,1.4375 l 1.21875,1.59375 a 1.038667,1.038667 0 0 0 1.21875,0.3125 1.0168078,1.0168078 0 0 1 0.0313,-0.0313 1.0168078,1.0168078 0 0 1 0.15625,-0.125 c 1.98248,-1.53539 4.37368,-2.3105 6.75,-2.3125 2.36983,-0.002 4.73482,0.75003 6.71875,2.28125 a 1.0168078,1.0168078 0 0 1 0.0937,0.125 1.0168078,1.0168078 0 0 1 0.0313,0 1.038667,1.038667 0 0 0 0.0313,0.0313 1.038667,1.038667 0 0 0 1.28125,-0.28125 l 1.21875,-1.59375 a 1.038667,1.038667 0 0 0 -0.1875,-1.4375 c -2.70947,-2.0912 -5.94572,-3.1277 -9.1875,-3.125 z m 0,1.03125 c 3.02087,-0.003 6.03931,0.95882 8.5625,2.90625 l -1.21875,1.59375 c -4.32548,-3.33846 -10.36759,-3.34567 -14.6875,0 l -1.21875,-1.59375 c 2.51994,-1.95163 5.54163,-2.90373 8.5625,-2.90625 z"
         style="fill:#000000;fill-opacity:0.39215686;stroke:none"
         inkscape:connector-curvature="0" />
      <path
         id="path4409"
         d="m -173.59205,334.79454 c -2.37632,0.002 -4.76752,0.77711 -6.75,2.3125 a 1.0168078,1.0168078 0 0 0 -0.1875,1.4375 l 1.21875,1.5625 a 1.0168078,1.0168078 0 0 0 1.4375,0.1875 c 2.51747,-1.94973 6.00862,-1.94699 8.53125,0 a 1.0168078,1.0168078 0 0 0 1.4375,-0.1875 l 1.21875,-1.59375 a 1.0168078,1.0168078 0 0 0 -0.1875,-1.4375 c -1.98393,-1.53122 -4.34892,-2.28323 -6.71875,-2.28125 z m 0,1.03125 c 2.15778,-0.002 4.29146,0.67147 6.09375,2.0625 l -1.21875,1.59375 c -2.88366,-2.22564 -6.90131,-2.23045 -9.78125,0 l -1.21875,-1.5625 c 1.79996,-1.39403 3.96722,-2.09195 6.125,-2.09375 z"
         style="fill:#000000;fill-opacity:0.39215686;stroke:none"
         inkscape:connector-curvature="0" />
      <path
         id="path4284"
         d="m -173.59205,331.82579 c -3.02087,0.003 -6.04256,0.95462 -8.5625,2.90625 l 1.21875,1.59375 c 4.31991,-3.34567 10.36202,-3.33846 14.6875,0 l 1.21875,-1.59375 c -2.52319,-1.94743 -5.54163,-2.90877 -8.5625,-2.90625 z"
         style="fill:url(#linearGradient3367-4);fill-opacity:1;stroke:none"
         inkscape:connector-curvature="0" />
      <path
         id="path4602"
         d="m -173.55454,338.85704 c -1.50018,-0.0118 -2.993,0.45045 -4.25,1.40625 a 0.9725103,0.9725103 0 0 0 -0.1875,1.375 l 1.21875,1.59375 a 0.9725103,0.9725103 0 0 0 1.375,0.1875 c 0.50911,-0.38295 1.13582,-0.625 1.8125,-0.625 0.69568,0 1.30795,0.23427 1.84375,0.65625 a 0.9725103,0.9725103 0 0 0 1.34375,-0.15625 l 1.25,-1.59375 a 0.9725103,0.9725103 0 0 0 -0.15625,-1.34375 c -1.24485,-0.978 -2.74744,-1.48812 -4.25,-1.5 z m 0,0.96875 c 1.29299,0.0102 2.58348,0.43844 3.65625,1.28125 l -1.25,1.59375 c -0.6795,-0.53516 -1.50545,-0.875 -2.4375,-0.875 -0.90006,0 -1.73839,0.31014 -2.40625,0.8125 l -1.21875,-1.59375 c 1.08596,-0.82575 2.36326,-1.22897 3.65625,-1.21875 z"
         style="fill:#000000;fill-opacity:0.39215686;stroke:none"
         inkscape:connector-curvature="0" />
      <path
         id="path4292"
         d="m -173.59205,335.82579 c -2.15778,0.002 -4.32504,0.69972 -6.125,2.09375 l 1.21875,1.5625 c 2.87994,-2.23045 6.89759,-2.22564 9.78125,0 l 1.21875,-1.59375 c -1.80229,-1.39103 -3.93597,-2.0643 -6.09375,-2.0625 z"
         style="fill:url(#linearGradient3369-5);fill-opacity:1;stroke:none"
         inkscape:connector-curvature="0" />
      <path
         id="path4585"
         d="m -173.55454,339.82579 c -1.29299,-0.0102 -2.57029,0.393 -3.65625,1.21875 l 1.21875,1.59375 c 0.66786,-0.50236 1.50619,-0.8125 2.40625,-0.8125 0.93205,0 1.758,0.33984 2.4375,0.875 l 1.25,-1.59375 c -1.07277,-0.84281 -2.36326,-1.27103 -3.65625,-1.28125 z"
         style="fill:url(#linearGradient3308);fill-opacity:1;stroke:none"
         inkscape:connector-curvature="0" />
    </g>
    <rect
       style="opacity:0;fill:#b7b7b7;fill-opacity:1;stroke:none"
       id="rect3456-2"
       width="40.845467"
       height="40.845467"
       x="581.45227"
       y="415.4216"
       rx="0"
       ry="0" />
    <g
       id="g5737"
       transform="translate(-50.633896,-22.349625)"
       inkscape:export-filename="/home/momphucker/Scrivania/unsecure_select.png"
       inkscape:export-xdpi="90"
       inkscape:export-ydpi="90">
      <rect
         ry="0"
         rx="0"
         y="414.08231"
         x="575.64868"
         height="40.845467"
         width="40.845467"
         id="rect3456-7"
         style="opacity:0;fill:#b7b7b7;fill-opacity:1;stroke:none" />
      <path
         inkscape:connector-curvature="0"
         id="path4232-2"
         d="m 595.90121,443.0363 c -2.81978,0 -5.10568,2.2859 -5.10568,5.10569 0,2.81978 2.2859,5.10568 5.10568,5.10568 2.81979,0 5.10569,-2.2859 5.10569,-5.10568 0,-2.81979 -2.2859,-5.10569 -5.10569,-5.10569 z m 0,1.7019 c 1.87986,0 3.40379,1.52392 3.40379,3.40379 0,1.87986 -1.52393,3.40378 -3.40379,3.40378 -1.87986,0 -3.40379,-1.52392 -3.40379,-3.40378 0,-1.87987 1.52393,-3.40379 3.40379,-3.40379 z"
         style="fill:#ff0000;fill-opacity:0.39215686;stroke:none" />
      <path
         transform="matrix(2.2691925,0,0,2.2691925,1069.0279,-57.597024)"
         d="m -207,222.86218 c 0,0.82843 -0.67157,1.5 -1.5,1.5 -0.82843,0 -1.5,-0.67157 -1.5,-1.5 0,-0.82842 0.67157,-1.5 1.5,-1.5 0.82843,0 1.5,0.67158 1.5,1.5 z"
         sodipodi:ry="1.5"
         sodipodi:rx="1.5"
         sodipodi:cy="222.86218"
         sodipodi:cx="-208.5"
         id="path4230-2"
         style="fill:url(#linearGradient5884);fill-opacity:1;stroke:none"
         sodipodi:type="arc" />
      <path
         inkscape:connector-curvature="0"
         id="path4398-9"
         d="m 595.91187,422.56039 c -5.51123,0.005 -11.02659,1.74842 -15.63616,5.31842 a 1.7677016,1.7677016 0 0 0 -0.3191,2.44647 l 2.07418,2.71239 a 1.7677016,1.7677016 0 0 0 2.07418,0.53184 1.7304995,1.7304995 0 0 1 0.0533,-0.0533 1.7304995,1.7304995 0 0 1 0.26592,-0.21274 c 3.37398,-2.61307 7.44355,-3.93223 11.48779,-3.93563 4.0332,-0.003 8.05816,1.27647 11.4346,3.88244 a 1.7304995,1.7304995 0 0 1 0.15947,0.21274 1.7304995,1.7304995 0 0 1 0.0533,0 1.7677016,1.7677016 0 0 0 0.0533,0.0533 1.7677016,1.7677016 0 0 0 2.18055,-0.47866 l 2.07419,-2.71239 a 1.7677016,1.7677016 0 0 0 -0.31911,-2.44647 c -4.61123,-3.55901 -10.11899,-5.32302 -15.63615,-5.31842 z m 0,1.75507 c 5.1412,-0.005 10.27826,1.63181 14.57247,4.94613 l -2.07419,2.7124 c -7.36151,-5.68171 -17.64454,-5.69398 -24.99657,0 l -2.07418,-2.7124 c 4.28867,-3.32146 9.43126,-4.94184 14.57247,-4.94613 z"
         style="fill:#ff0000;fill-opacity:0.39215686;stroke:none" />
      <path
         inkscape:connector-curvature="0"
         id="path4409-2"
         d="m 595.90121,429.36796 c -4.04424,0.003 -8.11381,1.32256 -11.48778,3.93563 a 1.7304995,1.7304995 0 0 0 -0.31911,2.44648 l 2.07418,2.65921 a 1.7304995,1.7304995 0 0 0 2.44648,0.3191 c 4.28446,-3.31823 10.22603,-3.31357 14.51928,0 a 1.7304995,1.7304995 0 0 0 2.44648,-0.3191 l 2.07418,-2.7124 a 1.7304995,1.7304995 0 0 0 -0.3191,-2.44647 c -3.37644,-2.60598 -7.40141,-3.88582 -11.43461,-3.88245 z m 0,1.75508 c 3.67232,-0.003 7.30361,1.14277 10.37092,3.51016 l -2.07418,2.71239 c -4.90769,-3.7878 -11.7453,-3.79599 -16.64666,0 l -2.07418,-2.65921 c 3.06334,-2.37249 6.75179,-3.56028 10.4241,-3.56334 z"
         style="fill:#ff0000;fill-opacity:0.39215686;stroke:none" />
      <path
         inkscape:connector-curvature="0"
         id="path4284-8"
         d="m 595.90121,424.31546 c -5.1412,0.005 -10.2838,1.62467 -14.57247,4.94613 l 2.07419,2.7124 c 7.35203,-5.69398 17.63506,-5.68171 24.99657,0 l 2.07418,-2.7124 c -4.2942,-3.31432 -9.43127,-4.95041 -14.57247,-4.94613 z"
         style="fill:url(#linearGradient5886);fill-opacity:1;stroke:none" />
      <path
         inkscape:connector-curvature="0"
         id="path4602-1"
         d="m 595.96505,436.28191 c -2.55315,-0.0201 -5.09377,0.76662 -7.23305,2.39329 a 1.6551098,1.6551098 0 0 0 -0.31911,2.3401 l 2.07419,2.7124 a 1.6551098,1.6551098 0 0 0 2.3401,0.3191 c 0.86645,-0.65174 1.93305,-1.06368 3.08469,-1.06368 1.18397,0 2.22599,0.3987 3.13786,1.11687 a 1.6551098,1.6551098 0 0 0 2.28692,-0.26592 l 2.12737,-2.7124 a 1.6551098,1.6551098 0 0 0 -0.26592,-2.28692 c -2.1186,-1.66445 -4.67585,-2.53262 -7.23305,-2.55284 z m 0,1.64871 c 2.20053,0.0174 4.39681,0.74618 6.22255,2.18055 l -2.12737,2.7124 c -1.15643,-0.91079 -2.56211,-1.48916 -4.14836,-1.48916 -1.53181,0 -2.95856,0.52782 -4.09519,1.38279 l -2.07418,-2.7124 c 1.84819,-1.40534 4.02202,-2.09157 6.22255,-2.07418 z"
         style="fill:#ff0000;fill-opacity:0.39215686;stroke:none" />
      <path
         inkscape:connector-curvature="0"
         id="path4292-2"
         d="m 595.90121,431.12304 c -3.67231,0.003 -7.36076,1.19085 -10.4241,3.56334 l 2.07418,2.65921 c 4.90136,-3.79599 11.73897,-3.7878 16.64666,0 l 2.07418,-2.71239 c -3.06731,-2.36739 -6.6986,-3.51322 -10.37092,-3.51016 z"
         style="fill:url(#linearGradient5888);fill-opacity:1;stroke:none" />
      <path
         inkscape:connector-curvature="0"
         id="path4585-4"
         d="m 595.96505,437.93062 c -2.20053,-0.0174 -4.37436,0.66884 -6.22255,2.07418 l 2.07418,2.7124 c 1.13663,-0.85497 2.56338,-1.38279 4.09519,-1.38279 1.58625,0 2.99193,0.57837 4.14836,1.48916 l 2.12737,-2.7124 c -1.82574,-1.43437 -4.02202,-2.16316 -6.22255,-2.18055 z"
         style="fill:url(#linearGradient5890);fill-opacity:1;stroke:none" />
    </g>
    <rect
       style="opacity:0;fill:#b7b7b7;fill-opacity:1;stroke:none"
       id="rect3456-3"
       width="40.845467"
       height="40.845467"
       x="557.76331"
       y="433.04526"
       rx="0"
       ry="0" />
    <g
       id="g5907"
       transform="translate(-32.57742,-81.569818)"
       inkscape:export-filename="/home/momphucker/Scrivania/secure_select.png"
       inkscape:export-xdpi="90"
       inkscape:export-ydpi="90">
      <path
         inkscape:connector-curvature="0"
         id="path4232-7"
         d="m 578.01585,461.99924 c -2.81978,0 -5.10568,2.2859 -5.10568,5.10569 0,2.81978 2.2859,5.10568 5.10568,5.10568 2.81979,0 5.10569,-2.2859 5.10569,-5.10568 0,-2.81979 -2.2859,-5.10569 -5.10569,-5.10569 z m 0,1.7019 c 1.87986,0 3.40379,1.52392 3.40379,3.40379 0,1.87986 -1.52393,3.40378 -3.40379,3.40378 -1.87986,0 -3.40379,-1.52392 -3.40379,-3.40378 0,-1.87987 1.52393,-3.40379 3.40379,-3.40379 z"
         style="fill:#008000;fill-opacity:0.39215686;stroke:none" />
      <path
         transform="matrix(2.2691925,0,0,2.2691925,1051.1425,-38.634084)"
         d="m -207,222.86218 c 0,0.82843 -0.67157,1.5 -1.5,1.5 -0.82843,0 -1.5,-0.67157 -1.5,-1.5 0,-0.82842 0.67157,-1.5 1.5,-1.5 0.82843,0 1.5,0.67158 1.5,1.5 z"
         sodipodi:ry="1.5"
         sodipodi:rx="1.5"
         sodipodi:cy="222.86218"
         sodipodi:cx="-208.5"
         id="path4230-6"
         style="fill:url(#linearGradient3365-6-7);fill-opacity:1;stroke:none"
         sodipodi:type="arc" />
      <path
         inkscape:connector-curvature="0"
         id="path4398-8"
         d="m 578.02651,441.52333 c -5.51123,0.005 -11.02659,1.74842 -15.63616,5.31842 a 1.7677016,1.7677016 0 0 0 -0.3191,2.44647 l 2.07418,2.71239 a 1.7677016,1.7677016 0 0 0 2.07418,0.53184 1.7304995,1.7304995 0 0 1 0.0533,-0.0533 1.7304995,1.7304995 0 0 1 0.26592,-0.21274 c 3.37398,-2.61307 7.44355,-3.93223 11.48779,-3.93563 4.0332,-0.003 8.05816,1.27647 11.4346,3.88244 a 1.7304995,1.7304995 0 0 1 0.15947,0.21274 1.7304995,1.7304995 0 0 1 0.0533,0 1.7677016,1.7677016 0 0 0 0.0533,0.0533 1.7677016,1.7677016 0 0 0 2.18055,-0.47866 l 2.07419,-2.71239 a 1.7677016,1.7677016 0 0 0 -0.31911,-2.44647 c -4.61123,-3.55901 -10.11899,-5.32302 -15.63615,-5.31842 z m 0,1.75507 c 5.1412,-0.005 10.27826,1.63181 14.57247,4.94613 l -2.07419,2.7124 c -7.36151,-5.68171 -17.64454,-5.69398 -24.99657,0 l -2.07418,-2.7124 c 4.28867,-3.32146 9.43126,-4.94184 14.57247,-4.94613 z"
         style="fill:#008000;fill-opacity:0.39215686;stroke:none" />
      <path
         inkscape:connector-curvature="0"
         id="path4409-1"
         d="m 578.01585,448.3309 c -4.04424,0.003 -8.11381,1.32256 -11.48778,3.93563 a 1.7304995,1.7304995 0 0 0 -0.31911,2.44648 l 2.07418,2.65921 a 1.7304995,1.7304995 0 0 0 2.44648,0.3191 c 4.28446,-3.31823 10.22603,-3.31357 14.51928,0 a 1.7304995,1.7304995 0 0 0 2.44648,-0.3191 l 2.07418,-2.7124 a 1.7304995,1.7304995 0 0 0 -0.3191,-2.44647 c -3.37644,-2.60598 -7.40141,-3.88582 -11.43461,-3.88245 z m 0,1.75508 c 3.67232,-0.003 7.30361,1.14277 10.37092,3.51016 l -2.07418,2.71239 c -4.90769,-3.7878 -11.7453,-3.79599 -16.64666,0 l -2.07418,-2.65921 c 3.06334,-2.37249 6.75179,-3.56028 10.4241,-3.56334 z"
         style="fill:#008000;fill-opacity:0.39215686;stroke:none" />
      <path
         inkscape:connector-curvature="0"
         id="path4284-3"
         d="m 578.01585,443.2784 c -5.1412,0.005 -10.2838,1.62467 -14.57247,4.94613 l 2.07419,2.7124 c 7.35203,-5.69398 17.63506,-5.68171 24.99657,0 l 2.07418,-2.7124 c -4.2942,-3.31432 -9.43127,-4.95041 -14.57247,-4.94613 z"
         style="fill:url(#linearGradient5900);fill-opacity:1;stroke:none" />
      <path
         inkscape:connector-curvature="0"
         id="path4602-6"
         d="m 578.07969,455.24485 c -2.55315,-0.0201 -5.09377,0.76662 -7.23305,2.39329 a 1.6551098,1.6551098 0 0 0 -0.31911,2.3401 l 2.07419,2.7124 a 1.6551098,1.6551098 0 0 0 2.3401,0.3191 c 0.86645,-0.65174 1.93305,-1.06368 3.08469,-1.06368 1.18397,0 2.22599,0.3987 3.13786,1.11687 a 1.6551098,1.6551098 0 0 0 2.28692,-0.26592 l 2.12737,-2.7124 a 1.6551098,1.6551098 0 0 0 -0.26592,-2.28692 c -2.1186,-1.66445 -4.67585,-2.53262 -7.23305,-2.55284 z m 0,1.64871 c 2.20053,0.0174 4.39681,0.74618 6.22255,2.18055 l -2.12737,2.7124 c -1.15643,-0.91079 -2.56211,-1.48916 -4.14836,-1.48916 -1.53181,0 -2.95856,0.52782 -4.09519,1.38279 l -2.07418,-2.7124 c 1.84819,-1.40534 4.02202,-2.09157 6.22255,-2.07418 z"
         style="fill:#008000;fill-opacity:0.39215686;stroke:none" />
      <path
         inkscape:connector-curvature="0"
         id="path4292-4"
         d="m 578.01585,450.08598 c -3.67231,0.003 -7.36076,1.19085 -10.4241,3.56334 l 2.07418,2.65921 c 4.90136,-3.79599 11.73897,-3.7878 16.64666,0 l 2.07418,-2.71239 c -3.06731,-2.36739 -6.6986,-3.51322 -10.37092,-3.51016 z"
         style="fill:url(#linearGradient5896);fill-opacity:1;stroke:none" />
      <path
         inkscape:connector-curvature="0"
         id="path4585-0"
         d="m 578.07969,456.89356 c -2.20053,-0.0174 -4.37436,0.66884 -6.22255,2.07418 l 2.07418,2.7124 c 1.13663,-0.85497 2.56338,-1.38279 4.09519,-1.38279 1.58625,0 2.99193,0.57837 4.14836,1.48916 l 2.12737,-2.7124 c -1.82574,-1.43437 -4.02202,-2.16316 -6.22255,-2.18055 z"
         style="fill:url(#linearGradient5893);fill-opacity:1;stroke:none" />
    </g>
    <rect
       style="opacity:0;fill:#b7b7b7;fill-opacity:1;stroke:none"
       id="rect3456-0"
       width="40.845467"
       height="40.845467"
       x="525.81726"
       y="477.87079"
       rx="0"
       ry="0" />
    <g
       id="g6269">
      <path
         id="path4232-1"
         d="m 546.06977,506.82477 c -2.81978,0 -5.10568,2.2859 -5.10568,5.10569 0,2.81978 2.2859,5.10568 5.10568,5.10568 2.81979,0 5.10569,-2.2859 5.10569,-5.10568 0,-2.81979 -2.2859,-5.10569 -5.10569,-5.10569 z m 0,1.7019 c 1.87986,0 3.40379,1.52393 3.40379,3.40379 0,1.87986 -1.52393,3.40379 -3.40379,3.40379 -1.87986,0 -3.40379,-1.52393 -3.40379,-3.40379 0,-1.87986 1.52393,-3.40379 3.40379,-3.40379 z"
         style="fill:#000000;fill-opacity:0.96887159;stroke:none"
         inkscape:connector-curvature="0" />
      <path
         transform="matrix(2.2691925,0,0,2.2691925,1019.1964,6.1914482)"
         d="m -207,222.86218 a 1.5,1.5 0 1 1 -3,0 1.5,1.5 0 1 1 3,0 z"
         sodipodi:ry="1.5"
         sodipodi:rx="1.5"
         sodipodi:cy="222.86218"
         sodipodi:cx="-208.5"
         id="path4230-20"
         style="fill:url(#linearGradient3365-6-3);fill-opacity:1;stroke:none"
         sodipodi:type="arc" />
      <path
         id="path4398-0"
         d="m 546.08043,486.34886 c -5.51123,0.005 -11.02659,1.74842 -15.63616,5.31842 a 1.7677016,1.7677016 0 0 0 -0.3191,2.44647 l 2.07418,2.71239 a 1.7677016,1.7677016 0 0 0 2.07418,0.53185 1.7304995,1.7304995 0 0 1 0.0533,-0.0533 1.7304995,1.7304995 0 0 1 0.26592,-0.21274 c 3.37398,-2.61307 7.44355,-3.93223 11.48779,-3.93563 4.0332,-0.003 8.05816,1.27647 11.4346,3.88245 a 1.7304995,1.7304995 0 0 1 0.15947,0.21273 1.7304995,1.7304995 0 0 1 0.0533,0 1.7677016,1.7677016 0 0 0 0.0533,0.0533 1.7677016,1.7677016 0 0 0 2.18055,-0.47866 l 2.07419,-2.71239 a 1.7677016,1.7677016 0 0 0 -0.31911,-2.44647 c -4.61123,-3.559 -10.11899,-5.32302 -15.63615,-5.31842 z m 0,1.75508 c 5.1412,-0.005 10.27826,1.63181 14.57247,4.94613 l -2.07419,2.71239 c -7.36151,-5.68171 -17.64454,-5.69398 -24.99657,0 l -2.07418,-2.71239 c 4.28867,-3.32147 9.43126,-4.94185 14.57247,-4.94613 z"
         style="fill:#000000;fill-opacity:0.96887159;stroke:none"
         inkscape:connector-curvature="0" />
      <path
         id="path4409-6"
         d="m 546.06977,493.15643 c -4.04424,0.003 -8.11381,1.32256 -11.48778,3.93564 a 1.7304995,1.7304995 0 0 0 -0.31911,2.44647 l 2.07418,2.65921 a 1.7304995,1.7304995 0 0 0 2.44648,0.3191 c 4.28446,-3.31823 10.22603,-3.31357 14.51928,0 a 1.7304995,1.7304995 0 0 0 2.44648,-0.3191 l 2.07418,-2.7124 a 1.7304995,1.7304995 0 0 0 -0.3191,-2.44647 c -3.37644,-2.60597 -7.40141,-3.88581 -11.43461,-3.88245 z m 0,1.75508 c 3.67232,-0.003 7.30361,1.14277 10.37092,3.51016 l -2.07418,2.71239 c -4.90769,-3.7878 -11.7453,-3.79599 -16.64666,0 l -2.07418,-2.65921 c 3.06334,-2.37249 6.75179,-3.56027 10.4241,-3.56334 z"
         style="fill:#000000;fill-opacity:0.96887159;stroke:none"
         inkscape:connector-curvature="0" />
      <path
         id="path4284-39"
         d="m 546.06977,488.10394 c -5.1412,0.005 -10.2838,1.62466 -14.57247,4.94613 l 2.07419,2.71239 c 7.35203,-5.69398 17.63506,-5.68171 24.99657,0 l 2.07418,-2.71239 c -4.2942,-3.31432 -9.43127,-4.95042 -14.57247,-4.94613 z"
         style="fill:url(#linearGradient6262);fill-opacity:1;stroke:none"
         inkscape:connector-curvature="0" />
      <path
         id="path4602-0"
         d="m 546.13361,500.07038 c -2.55315,-0.0201 -5.09377,0.76662 -7.23305,2.39329 a 1.6551098,1.6551098 0 0 0 -0.31911,2.3401 l 2.07419,2.7124 a 1.6551098,1.6551098 0 0 0 2.3401,0.3191 c 0.86645,-0.65174 1.93305,-1.06368 3.08469,-1.06368 1.18397,0 2.22599,0.3987 3.13786,1.11687 a 1.6551098,1.6551098 0 0 0 2.28692,-0.26592 l 2.12737,-2.7124 a 1.6551098,1.6551098 0 0 0 -0.26592,-2.28692 c -2.1186,-1.66445 -4.67585,-2.53262 -7.23305,-2.55284 z m 0,1.64871 c 2.20053,0.0174 4.39681,0.74618 6.22255,2.18055 l -2.12737,2.7124 c -1.15643,-0.91079 -2.56211,-1.48916 -4.14836,-1.48916 -1.53181,0 -2.95856,0.52783 -4.09519,1.38279 l -2.07418,-2.7124 c 1.84819,-1.40533 4.02202,-2.09157 6.22255,-2.07418 z"
         style="fill:#000000;fill-opacity:0.96887159;stroke:none"
         inkscape:connector-curvature="0" />
      <path
         id="path4292-8"
         d="m 546.06977,494.91151 c -3.67231,0.003 -7.36076,1.19085 -10.4241,3.56334 l 2.07418,2.65921 c 4.90136,-3.79599 11.73897,-3.7878 16.64666,0 l 2.07418,-2.71239 c -3.06731,-2.36739 -6.6986,-3.51322 -10.37092,-3.51016 z"
         style="fill:url(#linearGradient6258);fill-opacity:1;stroke:none"
         inkscape:connector-curvature="0" />
      <path
         id="path4585-3"
         d="m 546.13361,501.71909 c -2.20053,-0.0174 -4.37436,0.66885 -6.22255,2.07418 l 2.07418,2.7124 c 1.13663,-0.85496 2.56338,-1.38279 4.09519,-1.38279 1.58625,0 2.99193,0.57837 4.14836,1.48916 l 2.12737,-2.7124 c -1.82574,-1.43437 -4.02202,-2.16316 -6.22255,-2.18055 z"
         style="fill:url(#linearGradient6255);fill-opacity:1;stroke:none"
         inkscape:connector-curvature="0" />
    </g>
  </g>
</svg>
